<svg width="229" height="75" viewBox="0 0 229 75" xmlns="http://www.w3.org/2000/svg"><title>Google Logo</title><g fill="#A9A9A9" fill-rule="evenodd"><path d="M78.576 20.822c-10.317 0-18.726 7.828-18.726 18.617 0 10.718 8.41 18.616 18.726 18.616 10.317 0 18.726-7.898 18.726-18.617 0-10.79-8.41-18.618-18.726-18.618zm0 29.76c-5.653 0-10.388-4.514-10.388-11.143 0-6.7 4.735-11.214 10.388-11.214S88.963 32.74 88.963 39.44c0 6.628-4.734 11.14-10.387 11.14zM119.15 20.822c-10.316 0-18.725 7.828-18.725 18.617 0 10.718 8.41 18.616 18.726 18.616 10.318 0 18.727-7.898 18.727-18.617 0-10.79-8.41-18.618-18.726-18.618zm0 29.76c-5.652 0-10.386-4.514-10.386-11.143 0-6.7 4.734-11.214 10.387-11.214 5.654 0 10.39 4.514 10.39 11.213 0 6.628-4.736 11.14-10.39 11.14zM57.215 31.54c.004 5.9-1.64 13.274-6.855 18.477-5.056 5.274-11.59 8.11-20.21 8.11-16 0-29.396-12.945-29.396-28.913S14.15.3 30.15.3c8.82 0 15.138 3.45 19.857 7.97l-5.583 5.57c-3.367-3.15-7.97-5.64-14.274-5.64-11.637 0-20.775 9.4-20.775 21.014 0 11.612 9.138 21.014 20.775 21.014 7.586 0 11.857-3.018 14.627-5.782 2.316-2.312 3.815-5.6 4.343-10.197H30.214v-7.9h26.58c.295 1.793.422 3.55.42 5.19M212.257 50.44c-4.17 0-6.995-1.693-8.903-5.43l24.803-10.225-.848-2.116c-1.556-4.16-6.29-11.848-15.97-11.848-9.61 0-17.596 7.546-17.596 18.617 0 10.46 7.914 18.616 18.513 18.616 8.55 0 13.497-5.218 15.547-8.25l-6.36-4.232c-1.98 3.032-5.795 4.866-9.187 4.866zm-.635-22.355c3.25 0 6.006 1.552 6.924 3.88l-16.534 6.84c-.27-7.17 5.427-10.72 9.61-10.72zM181.96 2.22h8.095V56.94h-8.094V2.22zM168.983 21.95v3.033h-.283c-1.838-2.187-5.394-4.16-9.823-4.16-9.327 0-17.877 8.18-17.877 18.686 0 10.436 8.55 18.545 17.877 18.545 4.43 0 7.985-1.974 9.823-4.23h.283v2.68c0 7.09-3.814 10.79-9.964 10.79-5.047 0-8.122-3.436-9.4-6.49l-7.136 2.963c2.06 4.965 7.52 11 16.535 11 9.6 0 17.735-5.624 17.735-19.41V21.95h-7.772zm-9.398 28.7c-5.654 0-10.318-4.653-10.318-11.14 0-6.56 4.664-11.284 10.318-11.284 5.58 0 9.963 4.725 9.963 11.283 0 6.487-4.382 11.14-9.963 11.14z"/></g></svg>